<?xml version="1.0" standalone="no"?>
<!DOCTYPE svg PUBLIC "-//W3C//DTD SVG 20010904//EN"
 "http://www.w3.org/TR/2001/REC-SVG-20010904/DTD/svg10.dtd">
<svg version="1.0" xmlns="http://www.w3.org/2000/svg"
 width="130.000000pt" height="110.000000pt" viewBox="0 0 130.000000 110.000000"
 preserveAspectRatio="xMidYMid meet">

<g transform="translate(0.000000,110.000000) scale(0.100000,-0.100000)"
fill="#000000" stroke="none">
<path d="M508 1040 c-210 -38 -381 -153 -459 -308 -32 -63 -34 -73 -34 -173 0
-101 1 -108 38 -181 67 -137 207 -240 392 -289 110 -29 288 -30 397 -1 234 63
389 208 429 400 46 223 -130 451 -411 532 -84 24 -272 35 -352 20z m450 -225
c28 -9 63 -13 77 -9 14 3 25 3 25 0 0 -4 -14 -33 -30 -66 -38 -75 -32 -78 9
-5 17 30 36 55 41 55 6 0 10 -2 10 -5 0 -7 -72 -135 -76 -135 -12 0 -44 37
-44 52 0 35 -77 66 -120 48 -43 -18 -60 -64 -60 -164 0 -96 15 -144 57 -188
53 -56 132 -20 151 67 5 25 14 41 25 43 33 7 18 -96 -21 -143 -9 -12 -5 -9 10
7 15 15 30 44 33 65 10 56 14 65 26 57 14 -8 3 -66 -22 -115 -35 -69 -129
-103 -219 -79 -61 16 -142 100 -165 171 -22 64 -17 178 9 232 54 111 154 150
284 112z m-553 -27 c-21 -71 -71 -160 -143 -257 -15 -20 -19 -30 -9 -22 29 23
111 152 141 224 27 62 46 85 46 54 0 -29 -90 -195 -130 -239 l-42 -48 61 0 61
0 0 78 0 77 40 33 c22 18 40 28 40 23 0 -6 7 -11 15 -11 12 0 15 -18 15 -98
l0 -99 40 -13 c64 -21 79 -57 35 -86 -18 -12 -24 -11 -43 2 -12 8 -22 24 -22
35 0 13 -6 19 -22 18 -17 -1 -19 -2 -5 -6 12 -3 17 -14 17 -37 0 -21 10 -44
30 -66 16 -19 29 -39 30 -43 0 -4 -46 -6 -102 -5 -95 3 -103 5 -106 24 -2 11
6 28 18 39 11 10 20 29 20 42 0 23 -1 23 -110 23 -146 0 -144 18 3 23 l112 3
-117 2 c-65 1 -118 5 -118 10 0 4 16 31 36 61 48 71 80 145 94 219 l13 62 54
0 c52 0 54 -1 48 -22z"/>
<path d="M821 777 c-50 -25 -65 -60 -69 -160 -5 -115 8 -167 55 -215 l36 -37
-30 36 c-39 47 -57 122 -51 214 6 86 29 132 78 157 19 10 28 18 20 18 -8 0
-26 -6 -39 -13z"/>
<path d="M561 427 c-13 -21 -12 -21 5 -5 10 10 16 20 13 22 -3 3 -11 -5 -18
-17z"/>
</g>
</svg>
