<?xml version="1.0" standalone="no"?>
<!DOCTYPE svg PUBLIC "-//W3C//DTD SVG 20010904//EN"
 "http://www.w3.org/TR/2001/REC-SVG-20010904/DTD/svg10.dtd">
<svg version="1.0" xmlns="http://www.w3.org/2000/svg"
 width="275.000000pt" height="183.000000pt" viewBox="0 0 275.000000 183.000000"
 preserveAspectRatio="xMidYMid meet">

<g transform="translate(0.000000,183.000000) scale(0.100000,-0.100000)"
fill="#000000" stroke="none">
<path d="M0 915 l0 -916 335 1 c227 1 335 5 335 12 0 7 5 7 14 -1 13 -11 54
-9 109 4 19 5 27 3 27 -6 0 -10 3 -10 12 -1 15 15 32 16 23 2 -4 -6 8 -10 29
-10 22 0 35 5 34 11 -2 6 3 14 11 17 8 2 11 0 7 -6 -3 -6 -2 -13 4 -17 5 -3
10 0 10 8 0 18 27 30 36 15 4 -5 0 -14 -7 -19 -11 -7 -10 -9 4 -9 13 0 17 6
15 20 -2 10 2 19 7 19 6 0 9 -6 7 -14 -1 -7 4 -15 13 -19 11 -4 15 1 15 19 0
13 4 26 9 30 6 3 9 -6 8 -19 -1 -14 3 -25 8 -25 6 -1 11 7 11 17 1 9 2 23 3
30 2 22 21 3 22 -21 l0 -22 9 21 c11 28 30 40 32 20 0 -9 1 -21 2 -28 1 -7
-10 -15 -24 -19 l-25 -7 27 -1 c16 -1 31 6 37 17 10 16 10 16 11 0 0 -16 55
-17 790 -18 l790 0 0 915 0 915 -734 0 c-578 0 -736 -3 -740 -12 -5 -10 -7
-10 -12 -1 -4 8 -136 12 -519 13 l-514 1 -3 -22 c-2 -13 -9 -24 -16 -27 -11
-3 -12 0 -3 16 7 14 8 23 1 27 -13 8 -30 -3 -30 -20 0 -8 -5 -17 -10 -20 -7
-4 -9 3 -6 19 l5 26 -85 0 -84 0 0 -915z m197 813 c23 3 33 1 29 -6 -3 -6 -1
-12 6 -14 6 -2 8 -10 4 -16 -5 -8 -16 -10 -29 -6 -12 4 -30 7 -39 6 -13 0 -18
7 -17 26 0 15 3 22 5 17 2 -6 21 -9 41 -7z m209 -33 c0 -19 -1 -35 -2 -35 -10
0 -23 41 -18 54 10 27 19 18 20 -19z m44 25 c0 -5 -4 -10 -10 -10 -5 0 -10 5
-10 10 0 6 5 10 10 10 6 0 10 -4 10 -10z m-81 -22 c0 -22 -1 -22 -9 -3 l-9 20
-1 -20 c-2 -18 -3 -18 -7 -2 -4 17 -5 17 -17 1 -14 -19 -36 -12 -36 12 0 10
12 14 40 14 35 0 40 -3 39 -22z m125 0 c-6 -10 -4 -10 7 -2 13 11 84 16 74 6
-3 -3 0 -11 6 -19 9 -10 8 -13 -5 -13 -9 0 -16 5 -16 10 0 6 -5 10 -11 10 -5
0 -7 -5 -4 -11 5 -7 -7 -9 -36 -7 -31 2 -43 8 -45 21 -1 11 4 17 17 17 14 0
18 -4 13 -12z m131 -13 c0 -10 -7 -20 -15 -22 -13 -4 -13 -3 0 6 10 7 11 11 3
11 -7 0 -13 7 -13 16 0 9 6 14 13 12 6 -3 12 -13 12 -23z m165 15 c0 -5 -7
-10 -15 -10 -8 0 -15 5 -15 10 0 6 7 10 15 10 8 0 15 -4 15 -10z m-520 -10 c0
-5 -2 -10 -4 -10 -3 0 -8 5 -11 10 -3 6 -1 10 4 10 6 0 11 -4 11 -10z m400
-10 c0 -11 -7 -20 -15 -20 -8 0 -15 9 -15 20 0 11 7 20 15 20 8 0 15 -9 15
-20z m85 0 c0 -22 -32 -24 -39 -3 -3 11 -4 9 -3 -7 3 -36 -27 -33 -31 3 -3 26
-2 27 35 25 25 -2 38 -8 38 -18z m165 -20 c0 -6 -9 -10 -20 -10 -13 0 -20 7
-20 20 0 18 3 19 20 10 11 -6 20 -15 20 -20z m182 -5 c5 -40 -8 -48 -18 -11
-5 22 0 46 10 46 2 0 6 -16 8 -35z m-112 10 c0 -8 -7 -15 -15 -15 -8 0 -15 7
-15 15 0 8 7 15 15 15 8 0 15 -7 15 -15z m35 -5 c0 -7 -5 -15 -10 -17 -6 -2
-11 6 -11 17 0 11 5 19 11 17 5 -2 10 -10 10 -17z m-203 -12 c-7 -7 -12 -8
-12 -2 0 14 12 26 19 19 2 -3 -1 -11 -7 -17z m-544 -47 c2 -23 0 -32 -9 -29
-6 2 -13 19 -14 36 -4 44 19 36 23 -7z m86 -3 c-4 -6 0 -14 7 -20 11 -7 9 -8
-6 -6 -14 2 -21 12 -23 33 -3 25 -2 27 12 16 9 -7 13 -18 10 -23z m-36 -6 c2
-14 -2 -22 -12 -22 -19 0 -29 17 -22 36 8 22 30 12 34 -14z m132 14 c0 -2 3
-11 6 -20 4 -12 0 -16 -15 -16 -12 0 -21 5 -21 10 0 6 6 10 13 10 8 0 7 4 -3
10 -13 8 -12 10 3 10 9 0 17 -2 17 -4z m332 -26 c3 -17 0 -30 -6 -30 -6 0 -11
14 -12 30 -1 39 12 39 18 0z m40 0 c3 -18 0 -30 -7 -30 -8 0 -13 44 -6 58 4 8
9 -2 13 -28z m-282 5 c0 -8 -8 -15 -17 -15 -15 0 -15 2 -4 9 11 7 10 10 -5 14
-16 4 -16 5 4 6 13 1 22 -5 22 -14z m90 -5 c0 -13 -7 -20 -19 -20 -10 0 -21 9
-24 20 -4 16 0 20 19 20 17 0 24 -6 24 -20z m69 13 c-4 -22 2 -25 14 -8 15 19
37 13 37 -9 0 -20 -32 -44 -37 -28 -3 6 -9 10 -13 7 -11 -7 -32 30 -23 39 9 8
23 8 22 -1z m159 -14 c-11 -7 -10 -11 2 -19 13 -8 13 -10 -1 -10 -9 0 -19 9
-22 19 -6 24 0 31 20 24 12 -5 12 -7 1 -14z m39 1 c-3 -11 -1 -23 4 -26 12 -7
12 -24 -1 -24 -12 0 -24 45 -15 59 10 18 18 12 12 -9z m43 10 c0 -5 -4 -10
-10 -10 -5 0 -10 5 -10 10 0 6 5 10 10 10 6 0 10 -4 10 -10z m75 1 c3 -5 1
-12 -5 -16 -5 -3 -10 1 -10 9 0 18 6 21 15 7z m43 -30 c2 -13 -2 -28 -9 -35
-9 -8 -11 -6 -7 10 3 12 1 29 -4 39 -8 13 -7 16 3 13 8 -3 16 -15 17 -27z
m-694 -73 c8 -34 -11 -38 -23 -6 -8 22 -8 22 -15 3 -9 -30 -81 -23 -83 7 -2
18 3 20 35 16 20 -3 46 -2 57 2 24 9 21 11 29 -22z m41 -3 c1 -27 -12 -34 -21
-10 -7 18 4 51 13 41 4 -3 7 -17 8 -31z m95 -9 c0 -9 -4 -16 -10 -16 -5 0 -7
8 -4 18 5 14 3 14 -10 -2 -14 -17 -16 -18 -16 -3 0 9 -7 17 -15 17 -17 0 -20
-16 -5 -23 6 -3 5 -4 -2 -3 -7 1 -15 11 -16 21 -3 14 1 17 22 13 18 -4 26 -1
26 9 0 12 2 12 15 -1 8 -8 15 -22 15 -30z m35 5 c0 -31 -2 -37 -12 -29 -16 13
-17 40 -1 56 7 7 12 12 13 12 0 0 0 -18 0 -39z m78 8 c-4 -21 -1 -34 8 -40 11
-7 11 -9 -3 -9 -14 0 -18 8 -18 33 0 29 6 47 16 47 2 0 1 -14 -3 -31z m95 -14
c2 -23 -2 -35 -10 -35 -8 0 -13 13 -13 35 0 19 5 35 10 35 6 0 12 -16 13 -35z
m40 -8 c-5 -35 -23 -29 -23 7 0 27 3 32 13 24 7 -6 12 -20 10 -31z m37 3 c1
-22 -2 -37 -6 -32 -14 14 -15 72 -1 72 4 0 7 -18 7 -40z m-198 14 c7 -20 -18
-38 -32 -22 -7 7 -6 12 4 15 11 5 11 7 0 14 -11 7 -10 9 4 9 10 0 20 -7 24
-16z m83 -5 c0 -10 -4 -20 -9 -23 -11 -7 -35 20 -27 32 9 16 36 9 36 -9z m-90
-79 c0 -5 -4 -10 -10 -10 -5 0 -10 5 -10 10 0 6 5 10 10 10 6 0 10 -4 10 -10z
m-159 -19 c1 -14 2 -13 6 2 5 18 33 24 33 6 0 -5 -5 -7 -12 -3 -7 5 -8 3 -4
-5 6 -9 13 -8 27 5 15 13 22 15 31 6 8 -8 7 -13 -6 -18 -13 -5 -14 -9 -6 -14
7 -4 -14 -7 -46 -6 -47 1 -60 5 -62 19 -2 9 -10 17 -18 17 -17 0 -19 -17 -2
-22 7 -3 8 -7 2 -11 -16 -9 -38 9 -31 26 9 23 87 21 88 -2z m445 -6 c-2 -7 1
-18 7 -24 8 -8 8 -11 -1 -11 -7 0 -15 7 -18 15 -4 8 -14 15 -23 15 -13 0 -13
-2 -2 -9 11 -7 11 -10 0 -17 -8 -4 -14 -3 -17 5 -3 9 -7 9 -18 0 -11 -9 -20
-7 -40 6 -15 9 -23 12 -20 6 4 -7 -1 -11 -13 -11 -12 0 -21 6 -21 13 0 7 -3 8
-8 2 -13 -18 -43 -17 -57 2 -7 10 -17 14 -21 10 -5 -4 -2 -12 6 -17 13 -8 12
-10 -2 -10 -11 0 -18 8 -18 19 0 17 8 19 93 17 50 0 98 -5 105 -9 7 -5 12 -3
12 3 0 7 7 10 15 7 8 -4 17 -2 20 4 9 13 27 0 21 -16z m49 15 c3 -5 -3 -10
-15 -10 -12 0 -18 5 -15 10 3 6 10 10 15 10 5 0 12 -4 15 -10z m35 -40 c0 -5
-4 -10 -10 -10 -5 0 -10 5 -10 10 0 6 5 10 10 10 6 0 10 -4 10 -10z m-409 -68
c-6 -11 -6 -24 0 -35 7 -11 7 -17 0 -17 -14 0 -24 36 -16 60 4 11 11 18 16 15
5 -4 5 -13 0 -23z m-85 -7 c0 -14 -3 -25 -7 -25 -9 0 -18 37 -11 44 11 12 18
5 18 -19z m51 10 c0 -8 -4 -15 -8 -15 -3 0 -9 -9 -12 -20 -3 -11 -11 -20 -17
-20 -10 0 -10 3 0 15 6 8 9 19 5 25 -3 5 -3 15 0 20 9 15 32 12 32 -5z m118
-20 c0 -19 -3 -35 -7 -35 -5 0 -8 4 -8 9 0 4 -11 6 -25 3 -22 -4 -25 -1 -25
22 0 16 5 26 15 26 8 0 15 -7 15 -15 0 -8 4 -15 9 -15 5 0 7 9 4 20 -3 13 0
20 8 20 9 0 14 -12 14 -35z m47 5 c4 -25 1 -30 -15 -30 -17 0 -18 2 -6 17 11
13 11 17 1 20 -6 3 -10 9 -6 14 10 18 22 9 26 -21z m38 5 c0 -14 0 -28 1 -32
0 -4 -3 -9 -8 -10 -4 -2 -8 13 -8 32 0 19 3 35 8 35 4 0 7 -11 7 -25z m44 9
c7 -18 -1 -54 -12 -54 -4 0 -7 16 -8 35 -1 37 10 46 20 19z m41 -19 c0 -37 -9
-46 -19 -19 -7 18 1 54 12 54 4 0 7 -16 7 -35z m-249 -95 c-1 -16 -4 -30 -7
-30 -9 0 -17 32 -12 48 8 23 20 12 19 -18z m54 10 c0 -11 -4 -20 -9 -20 -5 0
-11 -9 -14 -20 -3 -11 -11 -20 -17 -20 -10 0 -10 3 0 15 6 8 9 19 5 25 -7 12
11 40 26 40 5 0 9 -9 9 -20z m27 -2 c-3 -12 -1 -31 5 -42 10 -19 10 -20 -5 -7
-17 13 -23 52 -10 64 12 13 15 7 10 -15z m83 3 c0 -11 3 -27 6 -35 4 -11 2
-15 -7 -11 -15 6 -22 65 -8 65 5 0 9 -9 9 -19z m60 -19 c0 25 73 20 78 -4 2
-10 -2 -18 -10 -19 -100 -5 -102 -5 -101 19 2 44 5 47 18 17 9 -18 14 -23 15
-13z m417 -2 c1 -22 -2 -40 -8 -40 -5 0 -9 18 -9 40 0 22 4 40 8 40 4 0 8 -18
9 -40z m81 -3 c2 -21 -1 -37 -7 -37 -6 0 -11 11 -11 24 0 13 -3 32 -7 42 -4
12 -2 15 8 12 8 -2 15 -21 17 -41z m-343 6 c7 -20 3 -24 -30 -27 -20 -3 -29 2
-35 18 -4 11 -6 24 -4 27 7 11 63 -3 69 -18z m115 13 c31 3 36 0 38 -21 1 -21
-1 -23 -40 -19 -23 2 -45 9 -49 15 -4 8 -8 7 -12 -2 -3 -8 -6 -1 -6 14 -1 23
2 26 17 19 9 -4 33 -7 52 -6z m76 -21 c0 -19 -3 -35 -8 -35 -11 0 -21 46 -13
59 12 20 20 11 21 -24z m114 -7 c0 -10 -4 -18 -9 -18 -10 0 -21 47 -13 55 8 7
22 -17 22 -37z m74 26 c7 -19 -1 -54 -14 -54 -4 0 -8 16 -8 35 0 37 11 46 22
19z m34 -13 c2 -13 -1 -28 -6 -33 -6 -6 -11 3 -14 26 -4 40 15 46 20 7z m35
-3 c2 -18 3 -35 0 -38 -7 -8 -23 24 -23 48 0 34 17 26 23 -10z m-703 12 c-13
-9 -13 -11 0 -20 13 -8 13 -10 -2 -10 -9 0 -20 5 -23 10 -9 14 3 30 23 30 15
0 15 -2 2 -10z m490 -15 c0 -15 -6 -25 -14 -25 -19 0 -28 14 -20 34 10 25 34
19 34 -9z m-270 -95 c0 -26 -3 -29 -25 -28 -15 1 -25 9 -26 18 0 13 -1 13 -7
0 -5 -10 -22 -16 -49 -16 -23 -1 -40 2 -38 7 3 4 1 10 -5 14 -12 7 -4 25 11
25 5 0 9 -8 9 -17 0 -15 2 -16 10 -3 10 16 67 23 76 9 3 -5 12 -2 20 6 21 21
24 19 24 -15z m35 -5 c0 -19 -3 -35 -7 -35 -11 0 -21 47 -13 59 12 20 20 11
20 -24z m45 25 c0 -5 -7 -10 -15 -10 -8 0 -15 5 -15 10 0 6 7 10 15 10 8 0 15
-4 15 -10z m318 2 c5 5 22 8 38 5 28 -4 28 -5 7 -12 -13 -4 -23 -15 -23 -25 0
-25 -93 -22 -98 3 -4 18 -17 22 -26 8 -4 -5 0 -11 6 -14 7 -2 10 -8 6 -12 -4
-4 -14 -2 -23 5 -8 7 -15 9 -15 4 0 -12 -173 -13 -182 -1 -3 6 -4 16 -1 23 3
10 29 12 97 11 51 -1 104 0 117 3 13 4 38 3 56 -1 17 -3 36 -2 41 3z m92 -21
c0 -17 -4 -33 -10 -36 -6 -4 -10 8 -10 29 0 20 5 36 10 36 6 0 10 -13 10 -29z
m-697 -2 c6 -21 0 -29 -22 -29 -14 0 -14 2 -1 10 8 5 10 10 4 10 -6 0 -14 -3
-18 -7 -11 -11 -30 -10 -38 2 -16 21 -7 30 31 31 30 1 41 -3 44 -17z m736 -21
c1 -5 -5 -8 -13 -8 -9 0 -12 8 -8 27 5 25 6 25 13 8 4 -11 8 -23 8 -27z m-699
2 c0 -5 -4 -10 -10 -10 -5 0 -10 5 -10 10 0 6 5 10 10 10 6 0 10 -4 10 -10z
m370 -86 c0 -20 -5 -34 -12 -34 -9 0 -12 13 -11 37 2 48 1 45 13 38 6 -3 10
-22 10 -41z m-327 -1 c5 -24 3 -31 -7 -27 -7 3 -11 15 -10 27 1 12 3 26 3 31
2 16 8 2 14 -31z m57 1 c0 -17 -5 -24 -20 -24 -23 0 -27 24 -7 44 16 18 27 10
27 -20z m185 0 c0 -30 -3 -34 -20 -30 -11 3 -26 6 -32 6 -16 0 -17 36 -2 46 6
3 15 0 20 -7 7 -11 9 -10 9 4 0 9 6 17 13 17 7 0 12 -14 12 -36z m42 -2 c1
-13 -2 -22 -10 -22 -6 0 -12 11 -12 25 0 30 17 28 22 -3z m-366 11 c-10 -4
-11 -7 -1 -13 7 -4 9 -13 6 -19 -11 -17 -26 -13 -27 7 -1 16 -2 16 -6 0 -7
-27 -43 -23 -43 5 0 19 6 22 43 23 23 1 36 0 28 -3z m216 -8 c0 -8 -9 -15 -19
-15 -10 0 -18 7 -18 15 0 8 8 15 18 15 10 0 19 -7 19 -15z m223 -20 c0 -8 -4
-15 -10 -15 -5 0 -7 7 -4 15 4 8 8 15 10 15 2 0 4 -7 4 -15z m-400 -5 c0 -5
-2 -10 -4 -10 -3 0 -8 5 -11 10 -3 6 -1 10 4 10 6 0 11 -4 11 -10z m-166 -65
c4 -11 13 -14 31 -9 22 5 25 3 21 -17 -4 -24 -24 -27 -38 -6 -5 7 -8 3 -8 -10
0 -42 -25 -25 -25 17 -1 41 8 52 19 25z m84 -10 c-4 -19 -1 -25 13 -25 12 0
16 5 13 15 -4 9 0 15 8 15 7 0 14 -9 15 -20 1 -16 -4 -20 -33 -20 -29 0 -34 3
-34 23 0 22 7 37 18 37 2 0 2 -11 0 -25z m126 11 c-3 -8 -1 -24 6 -35 9 -17 8
-21 -5 -21 -8 0 -15 7 -15 15 0 9 -9 15 -22 15 -19 0 -20 -2 -8 -10 13 -8 12
-10 -2 -10 -11 0 -18 8 -18 19 0 23 23 34 39 18 8 -8 11 -7 11 6 0 9 4 17 10
17 5 0 7 -6 4 -14z m251 -116 c0 -38 -7 -50 -19 -31 -3 5 -15 7 -26 4 -16 -4
-20 0 -20 22 0 22 4 26 20 22 13 -3 20 0 20 9 0 8 6 14 13 14 8 0 12 -14 12
-40z m80 0 c0 -18 -5 -35 -10 -37 -6 -2 -10 14 -10 37 0 23 4 39 10 37 5 -2
10 -19 10 -37z m-322 -7 c5 -24 3 -33 -7 -33 -11 0 -15 38 -7 69 2 10 8 -6 14
-36z m47 7 c0 -19 -5 -30 -14 -30 -24 0 -29 20 -10 41 23 25 24 24 24 -11z
m230 21 c0 -5 3 -16 6 -25 4 -10 1 -16 -7 -16 -8 0 -14 11 -14 25 0 14 3 25 8
25 4 0 7 -4 7 -9z m-350 -36 c0 -22 -4 -25 -40 -25 -22 0 -40 2 -40 4 0 2 -3
11 -6 19 -5 15 3 19 64 25 17 1 22 -3 22 -23z m207 10 c0 -8 -9 -15 -19 -15
-10 0 -18 7 -18 15 0 8 8 15 18 15 10 0 19 -7 19 -15z m1508 -14 c3 -5 1 -12
-5 -16 -5 -3 -10 1 -10 9 0 18 6 21 15 7z m105 0 c0 -6 -4 -13 -10 -16 -5 -3
-10 1 -10 9 0 9 5 16 10 16 6 0 10 -4 10 -9z m-1790 -11 c0 -5 -2 -10 -4 -10
-3 0 -8 5 -11 10 -3 6 -1 10 4 10 6 0 11 -4 11 -10z m1220 -21 c0 -17 -45 -27
-118 -28 -39 0 -92 -6 -118 -12 -38 -10 -48 -9 -55 2 -22 35 -7 42 93 43 54 0
98 3 98 6 0 3 22 3 50 2 27 -2 50 -8 50 -13z m87 7 c9 -9 -8 -26 -28 -26 -11
0 -19 7 -19 18 0 14 -2 15 -10 2 -5 -8 -10 -10 -10 -4 0 6 2 13 5 16 6 6 54 2
62 -6z m173 -1 c0 -9 -6 -12 -15 -9 -8 4 -12 10 -9 15 8 14 24 10 24 -6z
m-729 -20 c2 2 25 6 50 9 44 5 47 4 47 -18 0 -20 -5 -23 -47 -25 -25 -1 -53
-4 -62 -6 -17 -6 -30 28 -21 55 4 11 7 10 17 -3 7 -9 14 -15 16 -12z m-229
-10 c0 -14 1 -30 2 -37 1 -6 -4 -13 -9 -15 -6 -2 -11 14 -12 37 -2 43 16 57
19 15z m110 -10 c3 -24 0 -35 -9 -35 -8 0 -13 13 -13 35 0 19 4 35 9 35 5 0
11 -16 13 -35z m72 13 c9 -34 8 -38 -9 -38 -10 0 -15 10 -15 30 0 35 15 40 24
8z m-337 -28 c0 -45 -2 -48 -17 -20 -8 14 -8 26 0 40 15 28 17 25 17 -20z m76
3 c-1 -21 -2 -40 -2 -42 -1 -3 -6 0 -13 7 -7 7 -20 12 -30 12 -12 0 -18 7 -18
21 0 16 5 20 20 16 13 -3 20 0 20 9 0 8 6 14 13 14 8 0 11 -13 10 -37z m37 23
c0 -8 3 -21 6 -30 4 -10 1 -16 -8 -16 -10 0 -15 11 -15 30 0 17 4 30 9 30 4 0
8 -6 8 -14z m188 -11 c0 -26 -12 -33 -23 -15 -8 13 1 40 13 40 5 0 10 -11 10
-25z m-338 -10 c-8 -9 -7 -14 2 -18 7 -2 9 -8 5 -13 -5 -5 -15 -1 -23 10 -12
17 -18 15 -16 -5 1 -4 -18 -7 -41 -7 -25 -1 -36 2 -28 7 11 7 11 10 0 14 -12
4 -11 7 1 16 11 8 16 6 21 -6 5 -15 6 -15 12 1 4 11 13 16 22 12 8 -3 17 -1
20 4 3 5 12 7 21 3 11 -4 12 -9 4 -18z m-310 -24 c0 10 12 19 31 23 37 7 49 1
49 -25 0 -17 -7 -19 -58 -19 -62 0 -61 -1 -52 55 1 6 8 -3 15 -20 8 -16 14
-23 15 -14z m139 26 c11 3 17 -3 18 -16 1 -12 -1 -21 -5 -22 -4 0 -19 -3 -33
-5 -22 -4 -27 0 -31 21 -6 30 0 37 20 26 8 -5 22 -6 31 -4z m-199 -11 c0 -8 3
-21 6 -30 4 -10 1 -16 -8 -16 -10 0 -15 10 -14 30 1 29 16 44 16 16z m-30 -6
c0 -5 -6 -10 -12 -11 -10 0 -10 -2 0 -6 17 -7 15 -23 -2 -23 -19 0 -28 14 -20
34 7 17 34 22 34 6z m630 1 c0 -6 -4 -13 -10 -16 -5 -3 -10 1 -10 9 0 9 5 16
10 16 6 0 10 -4 10 -9z m-350 -11 c0 -5 -5 -10 -11 -10 -5 0 -7 5 -4 10 3 6 8
10 11 10 2 0 4 -4 4 -10z m430 -40 c0 -5 -7 -10 -15 -10 -8 0 -15 -9 -15 -21
0 -17 -5 -20 -37 -17 -48 4 -51 29 -5 39 18 4 36 9 39 13 10 10 33 7 33 -4z
m34 -6 c7 -19 -1 -54 -14 -54 -4 0 -8 16 -7 35 1 37 11 46 21 19z m-186 -29
c0 -28 -7 -31 -27 -12 -11 10 -13 10 -7 0 5 -9 -1 -13 -18 -13 -14 0 -26 5
-26 11 0 6 -8 3 -17 -7 -16 -15 -17 -15 -24 2 -6 14 -8 15 -8 4 -1 -22 -42
-23 -57 -2 -7 9 -16 13 -20 9 -5 -4 -2 -12 6 -17 13 -8 12 -10 -2 -10 -12 0
-18 8 -18 21 0 16 5 20 20 16 11 -3 20 -2 20 2 0 4 35 8 77 10 43 1 79 4 82 7
11 10 19 2 19 -21z m38 0 c1 -16 -3 -24 -10 -22 -16 5 -20 47 -4 47 7 0 14
-11 14 -25z m-346 -15 c0 -20 -5 -30 -15 -30 -8 0 -15 6 -15 13 0 8 -4 7 -10
-3 -8 -13 -10 -12 -11 5 -1 17 -2 17 -6 2 -2 -9 -8 -15 -13 -12 -5 3 -12 1
-15 -5 -5 -8 -11 -8 -20 0 -9 8 -15 8 -20 0 -3 -5 -11 -10 -16 -10 -6 0 -8 4
-4 9 3 5 1 12 -5 16 -14 9 -2 25 18 25 15 0 15 -2 2 -10 -22 -14 -3 -12 20 3
17 10 22 9 30 -3 8 -12 10 -12 10 -1 0 8 7 11 20 8 10 -3 24 1 31 9 16 20 19
18 19 -16z m36 -5 c0 -28 -2 -32 -13 -24 -14 12 -17 41 -6 52 13 14 18 6 19
-28z m44 25 c0 -5 -7 -10 -15 -10 -8 0 -15 5 -15 10 0 6 7 10 15 10 8 0 15 -4
15 -10z m-283 -40 c1 -15 -5 -20 -23 -21 -13 -1 -30 -2 -36 -3 -14 -2 -28 13
-28 30 0 6 19 11 43 12 36 2 43 -1 44 -18z m33 -10 c0 -5 -4 -10 -10 -10 -5 0
-10 5 -10 10 0 6 5 10 10 10 6 0 10 -4 10 -10z m-166 -85 c5 -13 -8 -65 -17
-65 -2 0 -3 18 -2 40 0 41 8 52 19 25z m130 -100 c-4 -15 -1 -32 6 -40 10 -12
9 -15 -4 -15 -9 0 -16 7 -16 15 0 8 -4 15 -10 15 -5 0 -10 -5 -10 -11 0 -6 -9
-9 -20 -6 -11 3 -22 2 -25 -3 -6 -10 -56 -7 -72 3 -8 5 -13 3 -13 -4 0 -7 -10
-9 -25 -7 -17 4 -25 1 -25 -8 0 -8 -3 -14 -7 -14 -5 0 -8 18 -8 40 -1 22 3 40
7 40 4 0 8 -6 8 -14 0 -19 63 -16 72 4 4 10 7 6 7 -12 1 -20 5 -26 16 -22 8 4
15 12 15 20 0 8 8 14 18 14 14 0 15 -2 2 -10 -13 -8 -12 -10 3 -10 9 0 17 5
17 11 0 7 10 9 24 7 18 -4 26 0 29 14 3 10 8 18 11 18 4 0 4 -11 0 -25z m1306
11 c0 -22 -8 -24 -98 -31 -74 -6 -82 -5 -76 10 4 9 13 14 20 11 8 -3 14 -2 14
3 0 4 21 9 47 10 26 1 49 3 51 6 11 11 42 4 42 -9z m-218 -48 c-9 -9 -12 -4
-11 23 0 32 1 33 11 11 8 -17 8 -26 0 -34z m-32 19 c0 -26 -44 -55 -56 -36 -3
6 -19 7 -35 4 -24 -5 -29 -3 -29 12 -1 17 -1 17 -15 -1 -8 -11 -29 -20 -52
-22 -21 -1 -52 -5 -70 -9 -26 -5 -33 -2 -38 15 -9 27 -3 32 37 35 18 1 78 5
132 8 54 4 101 9 104 12 12 12 22 3 22 -18z m-380 -44 c0 -27 -3 -34 -11 -26
-7 7 -22 8 -38 4 -14 -4 -48 -9 -76 -10 -27 -1 -59 -3 -70 -4 -12 -1 -19 3
-17 11 1 8 -3 12 -10 9 -7 -2 -12 -10 -11 -16 2 -6 -2 -11 -7 -11 -15 0 -12
37 3 42 6 2 32 6 57 7 25 1 49 6 53 10 4 5 30 6 57 3 33 -3 50 -1 50 7 0 6 5
11 10 11 6 0 10 -17 10 -37z m38 8 c2 -13 -1 -28 -6 -33 -6 -6 -11 3 -14 26
-4 40 15 46 20 7z m-342 -21 c5 0 10 -7 11 -17 2 -10 0 -12 -3 -5 -8 17 -24
15 -24 -3 0 -8 -9 -15 -20 -15 -11 0 -20 7 -20 15 0 8 0 17 0 20 0 3 3 5 8 4
4 0 6 -7 4 -15 -2 -8 2 -14 8 -14 5 0 10 12 10 28 0 18 3 23 9 14 4 -8 12 -13
17 -12z m374 10 c0 -5 -4 -10 -10 -10 -5 0 -10 5 -10 10 0 6 5 10 10 10 6 0
10 -4 10 -10z m-480 -26 c0 -8 5 -12 10 -9 6 4 7 11 4 17 -4 6 -1 9 7 6 8 -3
15 -12 17 -20 4 -18 -45 -31 -52 -14 -3 7 -8 6 -15 -4 -9 -12 -11 -10 -11 13
0 20 5 27 20 27 11 0 20 -7 20 -16z m-209 -44 c5 0 9 9 9 20 0 11 2 20 4 20 2
0 11 3 20 6 12 5 16 0 16 -20 0 -14 -1 -26 -2 -26 -77 -12 -74 -13 -72 17 2
39 6 43 11 11 2 -16 9 -28 14 -28z m-93 13 c-9 -11 -9 -16 3 -24 11 -7 11 -9
-3 -9 -10 0 -18 7 -18 16 0 8 -5 12 -10 9 -6 -4 -8 -11 -5 -16 4 -5 -3 -9 -14
-9 -14 0 -21 6 -21 20 0 15 7 20 25 20 14 0 25 4 25 10 0 5 7 7 15 4 12 -5 13
-9 3 -21z m219 12 c0 -8 -9 -15 -19 -15 -10 0 -18 7 -18 15 0 8 8 15 18 15 10
0 19 -7 19 -15z m233 11 c0 -3 -4 -8 -10 -11 -5 -3 -10 -1 -10 4 0 6 5 11 10
11 6 0 10 -2 10 -4z m-540 -20 c0 -8 3 -21 6 -30 4 -10 1 -16 -7 -16 -9 0 -14
11 -14 30 0 17 3 30 8 30 4 0 7 -6 7 -14z m342 -86 c3 -17 0 -30 -6 -30 -6 0
-12 14 -13 30 -3 39 13 39 19 0z m44 -16 c-7 -18 -22 -18 -30 1 -3 8 3 22 12
31 16 17 17 17 20 0 2 -9 1 -24 -2 -32z m1002 34 c-6 -18 -28 -21 -28 -4 0 9
7 16 16 16 9 0 14 -5 12 -12z m-228 -25 c0 -9 -6 -13 -14 -10 -8 3 -16 1 -18
-5 -2 -6 -26 -13 -54 -15 -27 -3 -53 -9 -58 -14 -6 -5 -18 -9 -28 -9 -13 0
-18 8 -18 30 0 17 4 30 9 30 4 0 6 -11 3 -25 -2 -15 0 -25 7 -25 6 0 11 8 11
19 0 11 9 21 23 25 34 9 67 7 67 -4 0 -5 5 -10 11 -10 6 0 9 6 6 14 -4 10 2
16 16 18 28 5 37 1 37 -19z m104 18 c5 -8 -22 -22 -71 -36 -19 -5 -23 -2 -23
17 0 21 5 24 45 26 24 1 47 -2 49 -7z m-1125 -31 c9 -26 8 -30 -8 -30 -12 0
-17 7 -15 23 1 12 3 25 3 30 2 15 9 6 20 -23z m51 0 c0 -20 -5 -30 -15 -30
-21 0 -30 27 -15 45 19 23 30 18 30 -15z m80 5 c0 -8 -8 -15 -18 -15 -10 0
-19 7 -19 15 0 8 9 15 19 15 10 0 18 -7 18 -15z m150 0 c0 -8 -4 -15 -10 -15
-5 0 -7 7 -4 15 4 8 8 15 10 15 2 0 4 -7 4 -15z m-363 -26 c1 -10 -2 -19 -6
-19 -5 0 -22 -3 -38 -6 -25 -5 -31 -2 -35 14 -7 26 -7 27 39 29 32 1 39 -2 40
-18z m726 -6 c7 8 31 17 55 21 34 5 42 3 42 -9 0 -8 0 -18 0 -22 0 -5 -8 -9
-17 -10 -10 0 -39 -4 -65 -7 -46 -6 -48 -6 -48 17 0 31 14 45 18 17 3 -18 5
-19 15 -7z m-45 -16 c3 -25 0 -27 -32 -27 -29 0 -36 4 -36 19 0 20 26 36 35
21 3 -4 -1 -10 -7 -13 -7 -2 -10 -8 -6 -12 12 -13 30 7 25 27 -4 12 -1 18 6
15 7 -2 13 -16 15 -30z m-78 -14 c0 -28 -3 -34 -10 -23 -13 20 -13 60 0 60 6
0 10 -17 10 -37z"/>
<path d="M300 1699 c0 -5 5 -7 10 -4 6 3 10 8 10 11 0 2 -4 4 -10 4 -5 0 -10
-5 -10 -11z"/>
<path d="M656 1477 c3 -10 9 -15 12 -12 3 3 0 11 -7 18 -10 9 -11 8 -5 -6z"/>
<path d="M880 1160 c0 -5 7 -10 16 -10 8 0 12 5 9 10 -3 6 -10 10 -16 10 -5 0
-9 -4 -9 -10z"/>
<path d="M670 730 c0 -5 5 -10 11 -10 5 0 7 5 4 10 -3 6 -8 10 -11 10 -2 0 -4
-4 -4 -10z"/>
<path d="M860 640 c0 -5 7 -10 16 -10 8 0 12 5 9 10 -3 6 -10 10 -16 10 -5 0
-9 -4 -9 -10z"/>
</g>
</svg>
