<?xml version="1.0" standalone="no"?>
<!DOCTYPE svg PUBLIC "-//W3C//DTD SVG 20010904//EN"
 "http://www.w3.org/TR/2001/REC-SVG-20010904/DTD/svg10.dtd">
<svg version="1.0" xmlns="http://www.w3.org/2000/svg"
 width="130.000000pt" height="110.000000pt" viewBox="0 0 130.000000 110.000000"
 preserveAspectRatio="xMidYMid meet">

<g transform="translate(0.000000,110.000000) scale(0.100000,-0.100000)"
fill="#000000" stroke="none">
<path d="M552 1060 c-156 -22 -283 -82 -382 -180 -127 -126 -176 -285 -136
-436 48 -181 212 -332 426 -391 48 -13 99 -17 195 -17 112 1 141 4 210 27 166
55 295 159 361 292 67 136 57 305 -25 433 -125 192 -397 306 -649 272z m298
-146 c29 -8 62 -13 72 -11 14 4 18 2 14 -9 -13 -32 -16 -48 -5 -26 11 20 29
30 29 15 0 -3 -12 -31 -27 -62 -18 -37 -28 -50 -31 -38 -2 9 -8 15 -12 12 -5
-3 -12 5 -16 19 -7 29 -53 51 -88 42 -14 -3 -29 -19 -37 -38 -15 -37 -18 -133
-6 -190 9 -44 51 -98 76 -98 31 0 61 31 72 76 13 49 26 64 35 40 3 -9 10 -13
15 -10 17 10 9 -57 -12 -97 -22 -44 -65 -69 -119 -69 -32 0 -107 27 -98 35 3
3 -10 21 -28 40 -39 42 -54 88 -54 170 1 112 67 200 161 214 3 1 29 -6 59 -15z
m-405 -31 l-5 -28 11 25 c19 40 23 -1 5 -45 -23 -53 -19 -64 9 -32 22 25 27
27 40 13 11 -10 15 -37 15 -94 l0 -79 33 -9 c25 -8 33 -16 35 -37 4 -32 -21
-46 -49 -28 -27 16 -25 -11 2 -55 l21 -34 -76 0 c-41 0 -78 4 -81 10 -3 5 1
20 9 32 9 12 16 30 16 40 0 16 -10 18 -80 18 -106 0 -104 18 3 23 l82 3 -87 2
c-49 1 -88 4 -88 7 0 3 13 29 30 58 36 64 70 160 70 197 0 35 6 40 52 40 37 0
38 -1 33 -27z m420 -482 c3 -5 1 -12 -5 -16 -5 -3 -10 1 -10 9 0 18 6 21 15 7z
m-655 -30 c0 -16 2 -35 5 -43 7 -18 -15 -48 -22 -30 -2 6 -13 12 -24 12 -23 0
-24 21 -4 60 20 39 45 39 45 1z m140 19 c0 -5 -11 -10 -24 -10 -15 0 -27 -7
-31 -19 -9 -29 5 -51 33 -51 19 0 23 -3 15 -11 -19 -19 -56 -6 -65 22 -14 42
5 79 42 79 16 0 30 -4 30 -10z m466 -14 c9 -9 10 -17 4 -21 -13 -8 -13 -45 0
-45 6 0 10 -5 10 -11 0 -6 -8 -9 -17 -7 -18 3 -34 59 -25 86 5 16 10 15 28 -2z
m-383 -28 c8 -30 -10 -58 -38 -58 -26 0 -40 28 -30 60 9 29 61 28 68 -2z m87
-18 c0 -22 -4 -40 -10 -40 -5 0 -10 14 -10 31 0 20 -4 29 -12 26 -7 -2 -13
-16 -13 -30 1 -23 -14 -40 -16 -19 0 4 -2 15 -4 26 -6 30 4 42 35 44 29 2 30
1 30 -38z m90 -2 c0 -42 -12 -47 -14 -6 -2 33 -30 29 -34 -5 -5 -37 -22 -24
-22 17 0 31 2 33 35 34 35 1 35 1 35 -40z m88 20 c3 -14 -3 -18 -23 -18 -17 0
-25 -5 -22 -12 2 -7 14 -12 27 -10 14 2 20 0 16 -7 -4 -6 -18 -11 -31 -11 -27
0 -40 28 -30 61 8 26 58 23 63 -3z m72 11 c0 -5 -5 -7 -11 -3 -12 7 -29 -12
-29 -33 0 -7 9 -13 20 -13 11 0 20 -4 20 -10 0 -14 -33 -13 -48 2 -25 25 -6
68 30 68 10 0 18 -5 18 -11z m95 -29 c0 -22 -3 -40 -7 -40 -5 0 -8 18 -8 40 0
22 3 40 8 40 4 0 7 -18 7 -40z m90 6 c0 -36 -27 -56 -52 -40 -40 25 -20 77 26
72 21 -2 26 -8 26 -32z m87 -6 c2 -22 0 -40 -4 -40 -5 0 -8 13 -8 29 0 17 -4
32 -9 36 -13 7 -29 -24 -26 -47 2 -10 -1 -18 -6 -18 -5 0 -9 17 -9 38 0 34 3
38 29 40 27 2 29 -1 33 -38z m56 33 c-24 -6 -23 -19 3 -26 13 -4 20 -12 17
-24 -4 -22 -36 -30 -52 -12 -8 9 -7 11 6 6 26 -9 29 4 6 23 -25 20 -17 41 15
39 17 -1 18 -2 5 -6z m-740 -188 c1 -14 -2 -25 -6 -25 -4 0 -9 11 -10 25 -1
14 2 25 6 25 4 0 9 -11 10 -25z m499 -7 c-3 -7 -5 -2 -5 12 0 14 2 19 5 13 2
-7 2 -19 0 -25z m-417 -4 c0 -14 -12 -19 -23 -8 -9 9 4 35 14 28 5 -3 9 -12 9
-20z m52 8 c-7 -2 -10 -8 -6 -13 3 -5 0 -9 -5 -9 -12 0 -15 23 -5 33 4 4 12 4
17 0 8 -5 7 -8 -1 -11z m65 -8 c3 -18 2 -18 -6 1 l-10 20 -1 -20 -1 -20 -9 20
c-8 19 -9 19 -9 1 -1 -11 -4 -17 -7 -13 -4 3 -4 13 -1 21 8 20 42 13 44 -10z
m30 -11 c-16 -16 -17 -16 -17 3 0 26 11 37 24 24 7 -7 5 -16 -7 -27z m107 20
c3 -7 1 -15 -4 -18 -6 -4 -10 -1 -10 4 0 6 -7 11 -16 11 -8 0 -12 -4 -9 -10 3
-5 1 -10 -4 -10 -11 0 -15 22 -6 31 9 10 45 4 49 -8z m36 -3 c0 -11 -4 -20
-10 -20 -5 0 -10 9 -10 20 0 11 5 20 10 20 6 0 10 -9 10 -20z m63 -11 c-17
-17 -37 -1 -22 17 8 10 15 12 23 4 7 -7 7 -13 -1 -21z m47 8 c0 -7 -4 -6 -10
3 -8 12 -10 12 -10 1 0 -8 -3 -12 -6 -8 -9 9 6 28 17 22 5 -4 9 -12 9 -18z
m79 -5 c0 -14 -2 -13 -9 3 -5 12 -9 14 -9 6 -1 -8 -4 -12 -7 -8 -9 9 6 28 17
22 5 -4 9 -14 8 -23z m33 10 c-7 -2 -10 -8 -6 -13 3 -5 0 -9 -5 -9 -12 0 -15
23 -5 33 4 4 12 4 17 0 8 -5 7 -8 -1 -11z m-561 -1 c7 11 9 10 9 -4 0 -20 -22
-19 -26 1 -2 9 -1 9 3 1 4 -8 8 -7 14 2z m226 -13 c-3 -8 -6 -5 -6 6 -1 11 2
17 5 13 3 -3 4 -12 1 -19z m260 0 c-3 -8 -6 -5 -6 6 -1 11 2 17 5 13 3 -3 4
-12 1 -19z"/>
<path d="M745 867 c-21 -17 -28 -34 -31 -72 -4 -54 1 -51 10 5 9 47 28 71 68
80 31 7 31 8 6 9 -15 1 -39 -9 -53 -22z"/>
<path d="M711 657 c-1 -35 20 -88 44 -107 15 -12 14 -8 -3 15 -12 17 -26 50
-31 75 -6 33 -9 37 -10 17z"/>
<path d="M889 523 c-13 -16 -12 -17 4 -4 16 13 21 21 13 21 -2 0 -10 -8 -17
-17z"/>
<path d="M828 493 c7 -3 16 -2 19 1 4 3 -2 6 -13 5 -11 0 -14 -3 -6 -6z"/>
<path d="M426 835 c-9 -26 -7 -32 5 -12 6 10 9 21 6 23 -2 3 -7 -2 -11 -11z"/>
<path d="M363 712 c-24 -36 -42 -67 -40 -68 2 -2 22 26 46 62 24 36 41 67 40
69 -2 1 -23 -27 -46 -63z"/>
<path d="M406 731 c-9 -16 -27 -43 -42 -60 l-26 -31 46 0 46 0 0 60 c0 33 -2
60 -5 60 -2 0 -11 -13 -19 -29z"/>
<path d="M172 350 c-10 -17 -10 -20 3 -20 8 0 15 9 15 20 0 11 -1 20 -3 20 -1
0 -8 -9 -15 -20z"/>
<path d="M387 354 c-15 -15 -7 -45 11 -42 9 2 17 12 17 22 0 20 -16 31 -28 20z"/>
<path d="M655 350 c-3 -5 1 -10 9 -10 9 0 16 5 16 10 0 6 -4 10 -9 10 -6 0
-13 -4 -16 -10z"/>
<path d="M907 354 c-16 -16 -7 -44 14 -44 15 0 20 5 17 22 -3 22 -19 33 -31
22z"/>
<path d="M775 170 c-3 -5 -1 -10 4 -10 6 0 11 5 11 10 0 6 -2 10 -4 10 -3 0
-8 -4 -11 -10z"/>
</g>
</svg>
