<?xml version="1.0" standalone="no"?>
<!DOCTYPE svg PUBLIC "-//W3C//DTD SVG 20010904//EN"
 "http://www.w3.org/TR/2001/REC-SVG-20010904/DTD/svg10.dtd">
<svg version="1.0" xmlns="http://www.w3.org/2000/svg"
 width="140.000000pt" height="140.000000pt" viewBox="0 0 140.000000 140.000000"
 preserveAspectRatio="xMidYMid meet">

<g transform="translate(0.000000,140.000000) scale(0.100000,-0.100000)"
fill="#000000" stroke="none">
<path d="M0 700 l0 -700 229 0 228 0 7 83 c10 111 55 370 66 381 7 7 10 -10
10 -44 0 -93 19 -135 73 -170 42 -27 47 -28 47 -11 0 11 3 28 6 38 5 14 4 15
-4 4 -8 -11 -14 -5 -31 26 -21 41 -19 56 4 47 7 -3 16 0 21 7 11 18 13 68 3
75 -20 12 -7 24 29 24 27 0 33 -3 22 -10 -8 -5 -12 -10 -7 -11 35 -7 58 -1 95
24 27 18 43 24 41 15 -4 -33 0 -41 16 -28 23 19 18 0 -19 -83 -42 -91 -56
-162 -56 -279 l0 -88 310 0 310 0 0 700 0 700 -700 0 -700 0 0 -700z m786 439
c37 -23 46 -44 14 -34 -11 3 -20 4 -20 0 0 -3 9 -15 20 -27 11 -12 20 -30 20
-39 0 -10 5 -19 12 -21 6 -2 8 -9 5 -15 -5 -8 -26 -10 -61 -6 -52 5 -53 5 -64
-25 -8 -24 -15 -29 -35 -25 -13 3 -37 16 -52 29 -15 13 -41 24 -56 24 -38 0
-43 13 -17 46 12 15 23 33 24 38 1 6 7 23 12 37 9 23 17 27 52 27 23 1 45 3
48 6 12 13 67 5 98 -15z m536 -124 c11 -20 11 -20 -11 -1 -11 11 -21 26 -21
35 0 14 2 14 10 1 6 -8 16 -24 22 -35z m-522 -105 c0 -5 -7 -10 -16 -10 -8 0
-12 5 -9 10 3 6 10 10 16 10 5 0 9 -4 9 -10z m-210 -49 c0 -6 -4 -13 -10 -16
-5 -3 -10 -14 -10 -24 0 -10 -9 -29 -21 -42 -13 -15 -18 -31 -14 -47 7 -27 -4
-92 -15 -92 -14 0 -33 88 -24 117 10 35 11 43 13 69 1 26 81 60 81 35z m189
-11 c21 -10 41 -17 44 -13 8 7 15 -29 19 -89 2 -27 0 -48 -4 -48 -5 0 -8 -10
-8 -22 0 -13 -14 -39 -30 -58 l-29 -35 1 31 c1 17 -2 36 -6 42 -3 6 1 15 9 20
14 8 15 10 1 21 -8 7 -12 19 -10 26 3 8 -1 24 -10 36 -9 13 -13 32 -10 45 3
12 1 25 -5 28 -11 7 -16 36 -6 36 3 0 23 -9 44 -20z m-110 -19 c12 -21 5 -31
-21 -31 -23 0 -36 29 -17 41 20 13 27 11 38 -10z m308 -13 c-3 -8 -6 -5 -6 6
-1 11 2 17 5 13 3 -3 4 -12 1 -19z m-279 -58 c12 -12 22 -23 22 -26 0 -5 -81
4 -113 13 -18 5 -18 5 0 19 26 20 66 17 91 -6z m12 -51 c10 -5 -7 -8 -47 -9
-59 0 -81 8 -65 24 8 9 91 -2 112 -15z m-10 -40 c0 -6 7 -9 15 -5 12 4 13 2 6
-13 -6 -10 -7 -21 -4 -25 3 -3 -5 -6 -18 -6 -21 -1 -22 -2 -9 -13 30 -23 0
-64 -41 -55 -35 8 -44 51 -15 70 6 4 -1 8 -16 8 -31 0 -33 3 -17 29 13 20 99
29 99 10z m52 -47 c-3 -17 -7 -20 -13 -10 -13 19 -11 35 4 35 9 0 12 -9 9 -25z"/>
<path d="M766 807 c3 -10 9 -15 12 -12 3 3 0 11 -7 18 -10 9 -11 8 -5 -6z"/>
<path d="M626 135 c-17 -26 -21 -61 -8 -69 5 -3 13 17 18 45 6 27 10 49 8 49
-1 0 -9 -11 -18 -25z"/>
</g>
</svg>
