<?xml version="1.0" standalone="no"?>
<!DOCTYPE svg PUBLIC "-//W3C//DTD SVG 20010904//EN"
 "http://www.w3.org/TR/2001/REC-SVG-20010904/DTD/svg10.dtd">
<svg version="1.0" xmlns="http://www.w3.org/2000/svg"
 width="139.000000pt" height="140.000000pt" viewBox="0 0 139.000000 140.000000"
 preserveAspectRatio="xMidYMid meet">

<g transform="translate(0.000000,140.000000) scale(0.100000,-0.100000)"
fill="#000000" stroke="none">
<path d="M746 1314 c-4 -11 -13 -14 -30 -10 -13 3 -45 -2 -72 -11 -40 -13 -45
-18 -29 -24 16 -6 17 -8 3 -8 -9 -1 -20 4 -23 9 -4 6 -11 8 -16 4 -5 -3 -16 0
-24 6 -37 31 -133 -19 -164 -85 -12 -25 -25 -45 -30 -45 -31 0 -71 -149 -46
-170 12 -10 30 -79 28 -107 0 -7 3 -13 8 -13 10 0 13 30 14 151 0 81 1 87 29
112 16 15 34 27 41 27 6 0 36 12 65 26 37 18 59 23 70 17 8 -5 58 -8 110 -6
52 1 106 2 119 3 28 0 64 -30 92 -75 24 -38 24 -33 0 33 -20 54 -35 78 -60 98
-8 6 -11 16 -8 22 7 10 -46 62 -63 62 -4 0 -11 -7 -14 -16z"/>
<path d="M838 1084 c12 -9 22 -21 22 -26 0 -6 14 -30 30 -55 17 -24 30 -45 30
-47 0 -6 -50 7 -55 14 -6 9 -95 -8 -112 -22 -7 -5 -17 -7 -23 -3 -15 9 -32 -4
-23 -18 4 -7 8 -14 8 -17 2 -20 38 -111 46 -115 5 -4 6 1 2 11 -5 14 -2 15 18
8 13 -5 53 -9 89 -9 l65 0 3 114 2 115 -37 30 c-20 17 -48 32 -62 33 l-26 3
23 -16z"/>
<path d="M516 946 c-22 -7 -42 -18 -44 -25 -2 -7 -15 -16 -28 -21 -17 -7 -24
-17 -24 -35 0 -14 -5 -25 -12 -25 -6 0 -8 -3 -5 -6 9 -9 166 -31 173 -25 3 4
19 11 36 16 22 8 34 22 45 50 31 84 32 82 -39 83 -34 0 -81 -5 -102 -12z"/>
<path d="M310 785 c0 -8 5 -15 10 -15 6 0 10 7 10 15 0 8 -4 15 -10 15 -5 0
-10 -7 -10 -15z"/>
<path d="M932 715 c0 -16 2 -22 5 -12 2 9 2 23 0 30 -3 6 -5 -1 -5 -18z"/>
<path d="M770 712 c0 -16 -58 -32 -90 -25 -16 3 -37 3 -46 -1 -25 -10 2 -36
38 -36 16 0 49 -5 74 -11 34 -9 47 -9 59 1 16 13 21 70 6 70 -5 0 -16 3 -25 6
-9 3 -16 2 -16 -4z"/>
<path d="M915 653 c-5 -22 -8 -24 -17 -12 -8 11 -9 10 -4 -4 27 -84 12 -134
-62 -205 -30 -30 -65 -58 -76 -62 -21 -9 -21 -9 2 -9 29 -1 28 -14 -3 -31 -26
-14 -142 -8 -189 10 -42 15 -31 -7 14 -30 41 -21 66 -27 40 -10 -11 7 3 10 48
8 42 -2 61 -7 58 -15 -7 -17 21 -9 51 15 33 26 53 15 36 -20 -6 -13 -11 -30
-11 -38 1 -8 -2 -32 -6 -52 -7 -36 4 -52 19 -28 4 6 11 8 16 5 8 -5 12 37 13
147 1 38 11 24 41 -57 15 -39 35 -85 45 -103 11 -17 17 -39 14 -47 -4 -8 -2
-15 4 -15 5 0 15 -23 22 -50 l12 -50 204 0 204 0 0 170 c0 129 -3 170 -13 170
-6 0 -32 -19 -57 -42 -25 -23 -49 -40 -55 -39 -34 12 -180 39 -186 35 -5 -3
-49 2 -100 11 -74 13 -95 21 -113 42 l-23 26 34 49 c40 61 63 134 63 205 0 56
-13 71 -25 26z"/>
<path d="M810 601 c0 -9 -51 -22 -88 -21 -13 0 -39 -7 -58 -15 -19 -8 -41 -12
-48 -9 -16 6 -56 -12 -56 -26 0 -5 11 -5 28 0 36 13 172 28 194 22 10 -2 16
-8 13 -12 -3 -5 -1 -11 5 -15 5 -3 10 -2 10 4 0 5 8 12 18 15 21 7 27 47 9 58
-16 10 -27 10 -27 -1z"/>
<path d="M0 263 l0 -263 235 0 234 0 -6 38 c-4 20 -7 58 -7 84 0 37 -3 45 -13
36 -9 -7 -14 -6 -17 3 -13 37 -26 131 -29 191 -1 37 -3 68 -4 68 -1 0 -25 -24
-53 -54 -53 -56 -59 -60 -176 -95 -90 -27 -91 -27 -86 10 2 17 -1 40 -7 52 -6
12 -17 42 -25 67 -46 144 -45 147 -46 -137z"/>
<path d="M520 410 c0 -5 5 -10 10 -10 6 0 10 5 10 10 0 6 -4 10 -10 10 -5 0
-10 -4 -10 -10z"/>
<path d="M550 402 c0 -5 7 -13 16 -16 10 -4 14 -1 12 6 -5 15 -28 23 -28 10z"/>
<path d="M590 385 c0 -3 13 -11 30 -20 34 -18 69 -19 90 -4 12 9 11 10 -7 6
-13 -3 -43 1 -68 8 -25 8 -45 12 -45 10z"/>
<path d="M535 267 c7 -16 45 -40 45 -28 0 5 -11 16 -25 25 -16 11 -23 12 -20
3z"/>
<path d="M489 213 c-26 -28 -26 -28 -8 -63 20 -38 25 -28 8 16 -10 28 -10 28
10 9 12 -10 21 -16 22 -14 0 2 2 11 4 19 17 61 2 74 -36 33z"/>
<path d="M882 161 c1 -17 6 -31 12 -32 6 0 19 -2 29 -4 17 -3 17 -2 0 28 -25
42 -42 45 -41 8z"/>
<path d="M746 125 c-11 -8 -15 -15 -9 -15 6 0 16 7 23 15 16 19 11 19 -14 0z"/>
<path d="M620 122 c0 -12 19 -26 26 -19 2 2 -2 10 -11 17 -9 8 -15 8 -15 2z"/>
<path d="M778 23 c7 -3 16 -2 19 1 4 3 -2 6 -13 5 -11 0 -14 -3 -6 -6z"/>
</g>
</svg>
