<?xml version="1.0" standalone="no"?>
<!DOCTYPE svg PUBLIC "-//W3C//DTD SVG 20010904//EN"
 "http://www.w3.org/TR/2001/REC-SVG-20010904/DTD/svg10.dtd">
<svg version="1.0" xmlns="http://www.w3.org/2000/svg"
 width="160.000000pt" height="90.000000pt" viewBox="0 0 160.000000 90.000000"
 preserveAspectRatio="xMidYMid meet">

<g transform="translate(0.000000,90.000000) scale(0.100000,-0.100000)"
fill="#000000" stroke="none">
<path d="M297 850 c-186 -47 -311 -259 -280 -473 29 -205 179 -349 363 -349
99 0 171 31 246 107 201 205 147 569 -103 692 -60 29 -161 39 -226 23z m260
-185 c20 -9 43 -13 51 -10 11 4 13 -1 7 -22 -6 -27 -6 -27 9 -8 22 28 20 6 -5
-53 -23 -55 -39 -55 -52 0 -10 38 -54 49 -77 20 -45 -55 -32 -250 20 -297 27
-24 57 -5 71 48 19 69 21 75 26 54 3 -9 9 -15 14 -12 5 4 9 -5 9 -18 0 -87
-44 -147 -107 -147 -43 0 -60 8 -76 37 -60 102 -61 106 -61 198 -1 75 3 98 23
138 22 46 69 87 99 87 7 0 29 -7 49 -15z m-317 -22 c0 -15 2 -16 10 -3 16 24
13 -20 -5 -71 l-15 -44 23 27 c33 40 47 17 47 -81 0 -71 2 -80 20 -86 25 -8
42 -38 34 -59 -7 -19 -40 -21 -48 -3 -2 6 -4 -7 -3 -30 1 -23 6 -41 11 -40 5
1 11 -4 13 -10 3 -10 -12 -13 -56 -13 -54 0 -61 2 -61 19 0 11 5 23 10 26 6 3
10 17 10 31 0 23 -3 24 -59 24 -85 0 -89 20 -4 22 l68 2 -69 3 c-77 4 -75 -3
-32 98 14 33 31 93 38 133 11 69 13 72 40 72 20 0 28 -5 28 -17z"/>
<path d="M466 608 c-9 -12 -16 -32 -15 -43 1 -15 3 -13 9 8 5 16 14 35 21 43
6 8 9 14 6 14 -3 0 -13 -10 -21 -22z"/>
<path d="M443 465 c0 -44 2 -61 4 -37 2 23 2 59 0 80 -2 20 -4 1 -4 -43z"/>
<path d="M451 364 c0 -11 3 -14 6 -6 3 7 2 16 -1 19 -3 4 -6 -2 -5 -13z"/>
<path d="M196 505 c-9 -26 -7 -32 5 -12 6 10 9 21 6 23 -2 3 -7 -2 -11 -11z"/>
<path d="M201 460 c-23 -48 -52 -84 -38 -47 9 23 0 22 -12 -1 -9 -16 -5 -19
35 -21 l44 -2 0 61 c0 33 -1 60 -3 60 -1 0 -13 -23 -26 -50z"/>
</g>
</svg>
